<?xml version="1.0" encoding="utf-8"?>
<!-- Generator: Adobe Illustrator 19.0.0, SVG Export Plug-In . SVG Version: 6.00 Build 0)  -->
<svg version="1.1" id="Layer_1" xmlns="http://www.w3.org/2000/svg" xmlns:xlink="http://www.w3.org/1999/xlink" x="0px" y="0px"
	 viewBox="-345 256.5 100 100" style="enable-background:new -345 256.5 100 100;" xml:space="preserve">
<g>
	<path d="M-258.3,265.6c-3.3-0.5-6.4,0.8-8.5,3.1c0-1.5,0.1-3.1,0.1-4.6l2.7,0l0-5.6l-61.9,0v5.6l2.7,0c0,1.6,0,3.2,0.1,4.7
		c-0.4-0.5-0.9-0.9-1.4-1.3c-2.1-1.6-4.6-2.2-7.2-1.9c-5.3,0.7-9,5.6-8.2,10.9c0.8,5.5,6.1,7.8,10.8,9.8c4.3,1.8,8.3,3.5,8.8,7.3
		c0.1,0.6-0.1,1.1-0.4,1.5c-0.3,0.4-0.8,0.7-1.4,0.8c-0.6,0.1-1.1-0.1-1.6-0.4c-0.4-0.3-0.7-0.8-0.8-1.4l-0.2-1.1l-2.3,0.3l0.2,1.1
		c0.2,1.2,0.8,2.2,1.7,2.9c0.9,0.7,2.1,1,3.3,0.8c1-0.1,1.8-0.6,2.5-1.2c0.1-0.1,0.3-0.3,0.4-0.4c0.5,1.4,1,2.7,1.6,4
		c3.1,6.8,7.5,11.4,13.1,13.7v6.1l2.7,0l0,7.5c-3.6,1.6-5.6,4.9-5.9,9.6h-4.9v4.3l-4.3,0l0,7.2l-1.1,0l0,5.6l45.6,0l0-5.6h-1.1
		l0-7.2h-4.3l0-4.3l-4.9,0c-0.3-4.7-2.3-8-5.9-9.6v-7.5h2.7l0-6.1c2.6-1.1,5-2.6,7.1-4.7c0,0,0,0,0,0c3.1-3.1,5.6-7.5,7.5-12.9
		c0.7,0.9,1.7,1.5,2.8,1.6c1.4,0.2,2.8-0.3,3.7-1.3c0.7-0.7,1.1-1.5,1.2-2.5l0.2-1.1l-2.3-0.3l-0.2,1.1c-0.2,1.1-1.2,1.9-2.4,1.8
		c-0.6-0.1-1-0.4-1.4-0.8c-0.3-0.4-0.5-1-0.4-1.5c0.5-3.7,4.6-5.4,8.8-7.3c4.7-2,10-4.3,10.8-9.8c0.4-2.6-0.3-5.1-1.9-7.2
		C-253.5,267.3-255.8,266-258.3,265.6z M-274.4,352.2h-41l0-0.9l41,0L-274.4,352.2z M-275.5,348.9l-38.8,0l0-4.8h38.8V348.9z
		 M-279.9,341.8l-30.2,0l0-2h15.1l12.5,0l0,0h2.6L-279.9,341.8z M-323.6,260.8l57.2,0l0,0.9l-0.4,0l0,0l-18.7,0l-38.1,0
		L-323.6,260.8z M-328.2,284.3c-4.5-1.9-8.8-3.8-9.4-8c-0.6-4,2.3-7.8,6.3-8.3c2-0.3,3.9,0.2,5.5,1.4c1.6,1.2,2.6,2.9,2.9,4.9
		l0.2,1.1l0.1,0c0.3,4.7,0.9,8.9,1.6,12.7C-323.1,286.5-325.7,285.3-328.2,284.3z M-284.8,337.5l-20.4,0c0.2-3.6,1.6-6,4.2-7.3
		l11.9,0C-286.4,331.4-285,333.8-284.8,337.5z M-290.7,320.4l0,6.6l0,0l0,0.8l-8.5,0v-7.4h4.3L-290.7,320.4z M-288,318.1l-11.1,0
		h-2.4l0,0h-0.4v-3c1.6,0.5,3.3,0.8,5.1,0.9c0.6,0,1.2,0.1,1.8,0.1c0.7,0,1.4,0,2.1-0.1c0.2,0,0.5,0,0.7-0.1c0.4,0,0.9-0.1,1.3-0.2
		c0.3,0,0.6-0.1,0.9-0.1c0.4-0.1,0.8-0.2,1.2-0.3c0.2-0.1,0.5-0.1,0.7-0.2L-288,318.1z M-280.2,308c-2,2-4.3,3.5-6.8,4.4h0l-0.2,0.1
		c-1.7,0.6-3.6,1-5.6,1.2c-0.7,0.1-1.4,0.1-2.1,0.1c0,0,0,0-0.1,0c-0.6,0-1.3,0-1.9-0.1c-0.1,0-0.2,0-0.3,0
		c-0.6-0.1-1.1-0.1-1.7-0.2c0,0-0.1,0-0.1,0c-1.3-0.2-2.5-0.5-3.6-0.9l-0.2-0.1l0,0c-5.3-2-9.4-6.2-12.3-12.7
		c-3.7-8.2-5.6-19.9-5.7-35.6h35.9h15.9C-269.2,286.2-272.8,300.5-280.2,308L-280.2,308z M-253.8,270.8c1.2,1.6,1.7,3.5,1.4,5.5
		c-0.6,4.2-4.9,6.1-9.4,8c-2.5,1.1-5,2.2-7,3.7c0.7-3.8,1.3-8,1.6-12.6l0,0l0.2-1.1c0.6-4,4.3-6.8,8.3-6.3
		C-256.7,268.2-255,269.2-253.8,270.8z"/>
</g>
</svg>
