<?xml version="1.0" encoding="utf-8"?>
<!-- Generator: Adobe Illustrator 19.0.0, SVG Export Plug-In . SVG Version: 6.00 Build 0)  -->
<svg version="1.1" id="Layer_1" xmlns="http://www.w3.org/2000/svg" xmlns:xlink="http://www.w3.org/1999/xlink" x="0px" y="0px"
	 viewBox="-345 256.5 100 100" style="enable-background:new -345 256.5 100 100;" xml:space="preserve">
<g>
	<path d="M-295,351.5c24.8,0,45-20.2,45-45s-20.2-45-45-45s-45,20.2-45,45S-319.8,351.5-295,351.5z M-295,348.3
		c-8.6,0-16.6-2.6-23.3-7.1l11.3-15.6h23.9l11.3,15.6C-278.4,345.7-286.4,348.3-295,348.3z M-253.2,306.5c0,13.3-6.3,25.2-16,32.8
		l-11.3-15.6l7.4-22.7l18.3-6C-253.7,298.7-253.2,302.5-253.2,306.5z M-293.4,264.7c17.3,0.7,31.9,11.9,37.7,27.4l-18.3,6l-19.3-14
		V264.7z M-276.2,300.4l-7.2,22.1h-23.2l-7.2-22.1l18.8-13.6L-276.2,300.4z M-296.6,264.7V284l-19.3,14l-18.3-6
		C-328.5,276.6-313.9,265.4-296.6,264.7z M-335.2,295.1l18.3,6l7.4,22.7l-11.3,15.6c-9.7-7.7-16-19.5-16-32.8
		C-336.8,302.5-336.3,298.7-335.2,295.1z"/>
</g>
</svg>
