<?xml version="1.0" encoding="utf-8"?>
<!-- Generator: Adobe Illustrator 19.0.0, SVG Export Plug-In . SVG Version: 6.00 Build 0)  -->
<svg version="1.1" id="Layer_1" xmlns="http://www.w3.org/2000/svg" xmlns:xlink="http://www.w3.org/1999/xlink" x="0px" y="0px"
	 viewBox="-345 256.5 100 100" style="enable-background:new -345 256.5 100 100;" xml:space="preserve">
<g>
	<path d="M-266.1,282.6c-0.2-0.1-0.3-0.1-0.5-0.2l1-2.3c1.6-3.6,0-7.8-3.6-9.4c-1.4-0.6-3-0.8-4.5-0.4c0-0.9-0.2-1.8-0.6-2.7
		c-0.7-1.8-2.1-3.1-3.9-3.9c-2.7-1.1-5.8-0.4-7.8,1.5c-0.8-1.5-2.1-2.6-3.8-3.3c-0.8-0.3-1.6-0.4-2.4-0.4c-3,0-5.7,1.9-6.7,4.7
		l-8.6,23.5l-1.5-1.8c0,0,0,0,0,0l-3-3.9c-1.7-2.1-4.2-3.4-7-3.4c-2,0-3.9,0.6-5.4,1.9c-3.7,2.9-4.4,8.2-1.6,12.3l11.6,17.2
		l-0.7,2.4c-0.5,0.1-1,0.3-1.5,0.6c-1.4,0.8-2.3,2.2-2.4,3.8l-0.2,1.9c-1.6,0.2-3,1.1-4,2.4c-1,1.3-1.5,3-1.2,4.6
		c0.3,2.3,1.9,4.2,4,5l-0.4,3.5c-0.4,3.5,1.1,6.5,4,7.6l17.5,7.2c0.8,0.3,1.6,0.5,2.5,0.5c2.6,0,5-1.6,6.2-4l9.1-18.3
		c7.6-14.4,12.2-24.2,18.5-38.2C-261.5,287.8-263,284.1-266.1,282.6z M-321.1,327.2c-0.1-0.8,0.1-1.5,0.6-2.2c0.3-0.4,0.6-0.6,1-0.8
		l-0.5,4.9C-320.6,328.6-321,328-321.1,327.2z M-298,347.9l-17.5-7.2c-2.1-0.9-2-3.4-1.9-4.2l1.8-17.4c0.1-0.6,0.3-1,0.8-1.3
		c0.3-0.2,0.6-0.2,0.8-0.2c0.2,0,0.4,0,0.7,0.1l3.5,1.4l24.6,10.2l-1.2,2.4l-21.3-8.8c-1.6-0.6-3.4,0.1-4.1,1.7l-3.4,8.1
		c-0.7,1.6,0.1,3.4,1.7,4.1l20.4,8.4l-0.4,0.9C-294.4,347.7-296.4,348.6-298,347.9z M-292.4,342.7l-20.1-8.3
		c-0.3-0.1-0.5-0.5-0.3-0.8l3.3-8.1c0.1-0.3,0.4-0.4,0.6-0.4c0.1,0,0.2,0,0.2,0l20.7,8.6L-292.4,342.7z M-266,289.6
		c-6.1,13.5-10.6,23.1-17.7,36.7l-27.9-11.5l0.8-2.6c0.1-0.5,0.1-1-0.2-1.4l-12.1-17.8c-1.8-2.6-1.4-6,0.9-7.8
		c1-0.8,2.1-1.2,3.4-1.2c1.7,0,3.3,0.8,4.3,2.1l6.4,8.1c0,0,0.1,0.1,0.1,0.1l5.2,6.6c0.3,0.4,0.8,0.6,1.3,0.6c0.4,0,0.7-0.1,1-0.4
		c0.7-0.6,0.8-1.6,0.3-2.3l-4.8-6l9.3-25.4c0.7-1.9,3-3,4.9-2.3c2,0.7,3,2.9,2.3,4.9l-0.8,2.2c0,0,0,0,0,0l-6.2,15
		c-0.4,0.9,0.1,1.8,0.9,2.2c0.2,0.1,0.4,0.1,0.6,0.1c0.7,0,1.3-0.4,1.5-1l7.4-18v0l0.7-1.7c0.8-1.9,3.1-2.8,5-2.1
		c0.9,0.4,1.7,1.1,2.1,2.1c0.4,0.9,0.4,2,0,2.9l-0.5,1.3c0,0,0,0.1,0,0.1c0,0.1-0.1,0.1-0.1,0.2l-7.4,18c-0.4,0.9,0.1,1.8,0.9,2.2
		c0.2,0.1,0.4,0.1,0.6,0.1c0.7,0,1.3-0.4,1.5-1l7.4-18c1.1-1.2,2.9-1.6,4.3-0.9c1.9,0.9,2.8,3.1,1.9,5l-0.3,0.8
		c0,0.1-0.1,0.1-0.1,0.2l-0.6,1.5l-0.8,1.9c-0.1,0.1-0.1,0.3-0.1,0.4l-5,12.1c-0.4,0.9,0.1,1.8,0.9,2.2c0.2,0.1,0.4,0.1,0.6,0.1
		c0.7,0,1.3-0.4,1.5-1l4.7-11.3c0.1,0,0.3,0.1,0.4,0.1C-266,286.4-265.3,288.1-266,289.6z"/>
</g>
</svg>
